<svg width="24" height="24" viewBox="0 0 24 24" fill="none" xmlns="http://www.w3.org/2000/svg">
<path d="M10.53 10.43C10.43 10.12 10.34 9.82 10.24 9.51C10.14 9.2 10.05 8.91 9.97 8.62C9.89 8.34 9.82 8.08 9.75 7.84H9.73C9.64 8.27 9.53 8.7 9.39 9.13C9.24 9.61 9.09 10.11 8.93 10.61C8.79 11.12 8.64 11.59 8.49 12.01H11.03C10.97 11.799 10.89 11.55 10.8 11.289C10.71 11.02 10.62 10.73 10.53 10.43ZM19.75 0H4.25C1.9 0 0 1.9 0 4.25V19.15C0 21.5 1.9 23.4 4.25 23.4H19.75C22.1 23.4 24 21.5 24 19.15V4.25C24 1.9 22.1 0 19.75 0ZM14.7 16.53H12.609C12.54 16.54 12.47 16.49 12.45 16.42L11.63 14.04H7.91L7.15 16.39C7.13 16.48 7.05 16.54 6.96 16.531H5.08C4.97 16.531 4.94 16.47 4.97 16.351L8.19 7.08C8.22 6.98 8.25 6.87 8.29 6.75C8.33 6.54 8.35 6.32 8.35 6.1C8.34 6.05 8.38 6 8.43 5.99H11.02C11.1 5.99 11.14 6.02 11.15 6.07L14.8 16.37C14.83 16.479 14.8 16.53 14.7 16.53ZM18.1 16.38C18.1 16.49 18.061 16.54 17.971 16.54H16.01C15.91 16.54 15.86 16.479 15.86 16.38V8.68C15.86 8.58 15.901 8.54 15.991 8.54H17.971C18.061 8.54 18.1 8.59 18.1 8.68V16.38ZM17.891 7.35C17.7729 7.46994 17.6305 7.56323 17.4734 7.62359C17.3163 7.68396 17.148 7.71001 16.98 7.7C16.65 7.71 16.33 7.58 16.089 7.35C15.8599 7.09949 15.7379 6.7693 15.749 6.43C15.739 6.09 15.869 5.77 16.108 5.54C16.35 5.31 16.67 5.19 17 5.19C17.391 5.19 17.689 5.31 17.91 5.54C18.13 5.78 18.25 6.1 18.24 6.43C18.25 6.77 18.13 7.1 17.891 7.35Z" fill="black"/>
</svg>
