<svg width="12" height="17" viewBox="0 0 12 17" fill="none" xmlns="http://www.w3.org/2000/svg">
<path d="M8.44778 5.66315C9.18406 5.64105 9.88277 5.33304 10.3958 4.80443C10.9087 4.27582 11.1957 3.56818 11.1957 2.83158C11.1957 2.09497 10.9087 1.38733 10.3958 0.858721C9.88277 0.330109 9.18406 0.0220967 8.44778 0H2.78378C2.04751 0.0220967 1.3488 0.330109 0.835813 0.858721C0.322828 1.38733 0.0359133 2.09497 0.0359133 2.83158C0.0359133 3.56818 0.322828 4.27582 0.835813 4.80443C1.3488 5.33304 2.04751 5.64105 2.78378 5.66315C2.04107 5.67602 1.33313 5.98009 0.812449 6.50987C0.291765 7.03965 0 7.75275 0 8.49557C0 9.2384 0.291765 9.9515 0.812449 10.4813C1.33313 11.0111 2.04107 11.3151 2.78378 11.328C2.0447 11.3461 1.34198 11.6524 0.82566 12.1816C0.309337 12.7107 0.0203217 13.4207 0.0203217 14.16C0.0203217 14.8993 0.309337 15.6093 0.82566 16.1384C1.34198 16.6676 2.0447 16.9739 2.78378 16.992C3.53489 16.9916 4.25508 16.6929 4.78611 16.1617C5.31714 15.6305 5.61556 14.9103 5.61578 14.1592V5.66315H8.44778Z" fill="black"/>
<path d="M8.44778 11.3271C10.0119 11.3271 11.2798 10.0592 11.2798 8.49509C11.2798 6.93102 10.0119 5.66309 8.44778 5.66309C6.88371 5.66309 5.61578 6.93102 5.61578 8.49509C5.61578 10.0592 6.88371 11.3271 8.44778 11.3271Z" fill="black"/>
</svg>
