<svg width="24" height="24" viewBox="0 0 24 24" fill="none" xmlns="http://www.w3.org/2000/svg">
<path d="M0 0V24H24V0H0ZM13.0611 18.7174C13.0611 21.0531 11.6897 22.1194 9.69171 22.1194C7.88657 22.1194 6.84171 21.1877 6.306 20.0571L8.14371 18.948C8.49771 19.5746 8.81914 20.1051 9.59571 20.1051C10.3346 20.1051 10.806 19.8154 10.806 18.6857V11.0194H13.0611V18.7174ZM18.396 22.1194C16.3011 22.1194 14.946 21.1234 14.2869 19.8154L16.1246 18.7551C16.6071 19.5429 17.2389 20.1266 18.348 20.1266C19.2797 20.1266 19.8806 19.6603 19.8806 19.0123C19.8806 18.2409 19.2694 17.9674 18.2357 17.5123L17.6734 17.2714C16.0449 16.5806 14.9683 15.7071 14.9683 13.8694C14.9683 12.1766 16.2591 10.8909 18.2683 10.8909C19.704 10.8909 20.7326 11.3889 21.4723 12.696L19.7151 13.8214C19.3294 13.1306 18.9111 12.8571 18.2631 12.8571C17.6049 12.8571 17.1866 13.2754 17.1866 13.8214C17.1866 14.4969 17.6049 14.7694 18.5743 15.1929L19.1366 15.4337C21.0549 16.2531 22.1314 17.0949 22.1314 18.9797C22.1314 21.0051 20.5346 22.1186 18.3969 22.1186L18.396 22.1194Z" fill="black"/>
</svg>
