<svg width="24" height="24" viewBox="0 0 24 24" fill="none" xmlns="http://www.w3.org/2000/svg">
<path d="M9.85 8.12C9.48 7.97 9.08 7.91 8.67 7.92C8.41 7.92 8.18 7.92 7.99 7.93C7.79 7.92 7.65 7.93 7.58 7.94V11.3C7.72 11.31 7.85 11.32 7.97 11.32H8.5C8.89 11.32 9.28 11.26 9.65 11.14C9.97 11.05 10.25 10.86 10.47 10.61C10.68 10.36 10.78 10.02 10.78 9.58C10.79 9.27 10.71 8.96 10.55 8.69C10.3833 8.43036 10.138 8.23068 9.85 8.12ZM19.75 0H4.25C1.9 0 0 1.9 0 4.25V19.149C0 21.499 1.9 23.399 4.25 23.399H19.75C22.1 23.399 24 21.499 24 19.149V4.25C24 1.9 22.1 0 19.75 0ZM12.359 11.65C11.96 12.21 11.4 12.63 10.75 12.87C10.07 13.12 9.32 13.21 8.5 13.21C8.26 13.21 8.1 13.21 8 13.2C7.9 13.19 7.76 13.19 7.57 13.19V16.399C7.58 16.469 7.53 16.53 7.46 16.54H5.52C5.44 16.54 5.4 16.499 5.4 16.409V6.12C5.4 6.05 5.43 6.01 5.5 6.01C5.67 6.01 5.83 6.01 6.06 6C6.3 5.99 6.55 5.99 6.82 5.98C7.09 5.97 7.38 5.97 7.69 5.96C8 5.95 8.3 5.95 8.6 5.95C9.42 5.95 10.1 6.05 10.66 6.26C11.16 6.43 11.62 6.71 12 7.08C12.32 7.4 12.57 7.79 12.73 8.22C12.879 8.64 12.959 9.07 12.959 9.52C12.96 10.38 12.76 11.09 12.359 11.65ZM19.45 15.54C19.17 15.94 18.779 16.249 18.33 16.431C17.84 16.64 17.24 16.749 16.519 16.749C16.06 16.749 15.609 16.71 15.16 16.62C14.81 16.559 14.46 16.45 14.14 16.3C14.07 16.261 14.019 16.191 14.029 16.111V14.371C14.029 14.342 14.04 14.301 14.07 14.281C14.099 14.261 14.13 14.271 14.16 14.291C14.55 14.521 14.96 14.682 15.4 14.781C15.779 14.881 16.179 14.931 16.58 14.931C16.96 14.931 17.23 14.88 17.41 14.79C17.57 14.72 17.68 14.55 17.68 14.37C17.68 14.229 17.6 14.1 17.44 13.97C17.28 13.841 16.951 13.691 16.461 13.499C15.951 13.319 15.482 13.079 15.041 12.78C14.7281 12.5559 14.4683 12.2657 14.28 11.93C14.1211 11.6136 14.0424 11.263 14.051 10.909C14.051 10.479 14.171 10.069 14.392 9.699C14.642 9.299 15.011 8.979 15.441 8.779C15.91 8.54 16.5 8.43 17.21 8.43C17.62 8.43 18.04 8.46 18.45 8.52C18.75 8.56 19.04 8.64 19.31 8.75C19.349 8.76 19.39 8.8 19.41 8.84C19.42 8.88 19.43 8.92 19.43 8.96V10.59C19.43 10.63 19.41 10.67 19.38 10.69C19.29 10.71 19.24 10.71 19.2 10.69C18.9 10.53 18.58 10.42 18.24 10.35C17.87 10.27 17.5 10.22 17.12 10.22C16.92 10.21 16.71 10.24 16.519 10.29C16.39 10.32 16.279 10.39 16.209 10.49C16.159 10.57 16.129 10.67 16.129 10.76C16.129 10.85 16.169 10.94 16.23 11.02C16.32 11.13 16.439 11.22 16.57 11.29C16.799 11.41 17.04 11.52 17.279 11.62C17.82 11.8 18.34 12.05 18.82 12.35C19.15 12.559 19.42 12.84 19.609 13.18C19.769 13.498 19.849 13.85 19.839 14.209C19.85 14.68 19.71 15.149 19.45 15.54Z" fill="black"/>
</svg>
