<svg width="24" height="22" viewBox="0 0 24 22" fill="none" xmlns="http://www.w3.org/2000/svg">
<path d="M11.75 8.44583C12.8758 8.44583 13.794 9.36397 13.794 10.5116C13.794 11.6047 12.8758 12.5337 11.75 12.5337C10.6242 12.5337 9.70605 11.6047 9.70605 10.5116C9.70605 9.36397 10.6242 8.44583 11.75 8.44583ZM6.6893 19.2558C7.37791 19.6712 8.88628 19.0372 10.6242 17.3977C10.0558 16.7528 9.49837 16.0533 8.97372 15.3209C8.09291 15.2366 7.21724 15.1053 6.35047 14.9275C5.79302 17.2665 6.0007 18.8733 6.6893 19.2558ZM7.46535 12.9819L7.14837 12.4244C7.02814 12.7414 6.90791 13.0584 6.8314 13.3644C7.12651 13.43 7.45442 13.4847 7.79326 13.5393L7.46535 12.9819ZM14.6137 12.1512L15.4991 10.5116L14.6137 8.87211C14.2858 8.2928 13.936 7.77908 13.6191 7.26536C13.0288 7.23257 12.4058 7.23257 11.75 7.23257C11.0942 7.23257 10.4712 7.23257 9.88093 7.26536C9.56395 7.77908 9.21419 8.2928 8.88628 8.87211L8.00093 10.5116L8.88628 12.1512C9.21419 12.7305 9.56395 13.2442 9.88093 13.7579C10.4712 13.7907 11.0942 13.7907 11.75 13.7907C12.4058 13.7907 13.0288 13.7907 13.6191 13.7579C13.936 13.2442 14.2858 12.7305 14.6137 12.1512ZM11.75 4.80606C11.5423 5.04652 11.3237 5.29792 11.1051 5.59304H12.3949C12.1763 5.29792 11.9577 5.04652 11.75 4.80606ZM11.75 16.2172C11.9577 15.9768 12.1763 15.7254 12.3949 15.4302H11.1051C11.3237 15.7254 11.5423 15.9768 11.75 16.2172ZM16.7998 1.76745C16.1221 1.35211 14.6137 1.98606 12.8758 3.62559C13.4442 4.27048 14.0016 4.97001 14.5263 5.70234C15.4226 5.78978 16.3079 5.92094 17.1495 6.09583C17.707 3.75676 17.4993 2.15001 16.7998 1.76745ZM16.0347 8.04141L16.3516 8.59885C16.4719 8.28187 16.5921 7.9649 16.6686 7.65885C16.3735 7.59327 16.0456 7.53862 15.7067 7.48397L16.0347 8.04141ZM17.6195 0.335594C19.2263 1.25373 19.4012 3.66931 18.7235 6.48931C21.4998 7.30908 23.5 8.66443 23.5 10.5116C23.5 12.3588 21.4998 13.7142 18.7235 14.534C19.4012 17.354 19.2263 19.7695 17.6195 20.6877C16.0237 21.6058 13.8486 20.5565 11.75 18.5563C9.6514 20.5565 7.47628 21.6058 5.86953 20.6877C4.27372 19.7695 4.09884 17.354 4.77651 14.534C2.00023 13.7142 0 12.3588 0 10.5116C0 8.66443 2.00023 7.30908 4.77651 6.48931C4.09884 3.66931 4.27372 1.25373 5.86953 0.335594C7.47628 -0.582545 9.6514 0.466757 11.75 2.46699C13.8486 0.466757 16.0237 -0.582545 17.6195 0.335594ZM17.3026 10.5116C17.6742 11.3314 18.0021 12.1512 18.2753 12.9819C20.5707 12.2933 21.8605 11.3095 21.8605 10.5116C21.8605 9.71373 20.5707 8.73001 18.2753 8.04141C18.0021 8.8721 17.6742 9.69187 17.3026 10.5116ZM6.19744 10.5116C5.82581 9.69187 5.49791 8.8721 5.22465 8.04141C2.9293 8.73001 1.63953 9.71373 1.63953 10.5116C1.63953 11.3095 2.9293 12.2933 5.22465 12.9819C5.49791 12.1512 5.82581 11.3314 6.19744 10.5116ZM16.0347 12.9819L15.7067 13.5393C16.0456 13.4847 16.3735 13.43 16.6686 13.3644C16.5921 13.0584 16.4719 12.7414 16.3516 12.4244L16.0347 12.9819ZM12.8758 17.3977C14.6137 19.0372 16.1221 19.6712 16.7998 19.2558C17.4993 18.8733 17.707 17.2665 17.1495 14.9275C16.3079 15.1023 15.4226 15.2335 14.5263 15.3209C14.0016 16.0533 13.4442 16.7528 12.8758 17.3977ZM7.46535 8.04141L7.79326 7.48397C7.45442 7.53862 7.12651 7.59327 6.8314 7.65885C6.90791 7.9649 7.02814 8.28187 7.14837 8.59885L7.46535 8.04141ZM10.6242 3.62559C8.88628 1.98606 7.37791 1.35211 6.6893 1.76745C6.0007 2.15001 5.79302 3.75676 6.35047 6.09583C7.21724 5.91798 8.09291 5.78663 8.97372 5.70234C9.49837 4.97001 10.0558 4.27048 10.6242 3.62559Z" fill="black"/>
</svg>
