<svg width="24" height="24" viewBox="0 0 24 24" fill="none" xmlns="http://www.w3.org/2000/svg">
<path d="M18.835 0H5.165C3.79516 0 2.48142 0.544168 1.51279 1.51279C0.544168 2.48142 0 3.79516 0 5.165L0 18.235C0 19.6048 0.544168 20.9186 1.51279 21.8872C2.48142 22.8558 3.79516 23.4 5.165 23.4H18.835C20.2048 23.4 21.5186 22.8558 22.4872 21.8872C23.4558 20.9186 24 19.6048 24 18.235V5.165C24 3.79516 23.4558 2.48142 22.4872 1.51279C21.5186 0.544168 20.2048 0 18.835 0ZM12.729 16.491H10.442C10.282 16.491 10.168 16.485 10.104 16.378C9.889 15.959 9.674 15.543 9.46 15.13C9.23872 14.7051 9.01069 14.2837 8.776 13.866C8.53217 13.4337 8.29316 12.9986 8.059 12.561H8.043C7.82625 12.9934 7.60357 13.4228 7.375 13.849C7.145 14.278 6.916 14.705 6.691 15.129C6.46621 15.5533 6.23586 15.9747 6 16.393C5.956 16.49 5.881 16.5 5.773 16.5H3.568C3.525 16.5 3.501 16.517 3.496 16.474C3.49021 16.4347 3.49873 16.3946 3.52 16.361L6.627 11.256L3.6 6.138C3.567 6.095 3.562 6.06 3.584 6.031C3.59584 6.01712 3.61081 6.00625 3.62767 5.99929C3.64454 5.99234 3.66282 5.98949 3.681 5.991H5.951C6.00047 5.98894 6.04983 5.99711 6.096 6.015C6.13432 6.03702 6.16715 6.06745 6.192 6.104C6.385 6.534 6.6 6.963 6.836 7.392C7.072 7.821 7.311 8.245 7.552 8.664C7.793 9.083 8.016 9.507 8.22 9.936H8.236C8.449 9.496 8.666 9.067 8.888 8.648C9.11 8.229 9.335 7.808 9.564 7.384C9.795 6.959 10.017 6.537 10.232 6.12C10.2439 6.07979 10.266 6.0433 10.296 6.014C10.3359 5.99412 10.3806 5.98581 10.425 5.99H12.534C12.5577 5.98423 12.5828 5.98802 12.6037 6.00055C12.6247 6.01309 12.6399 6.03336 12.646 6.057C12.6502 6.074 12.6495 6.09184 12.644 6.10847C12.6386 6.1251 12.6285 6.13984 12.615 6.151L12.616 6.155L9.621 11.098L12.825 16.347C12.846 16.384 12.851 16.427 12.841 16.468C12.831 16.504 12.794 16.48 12.729 16.491ZM20.41 16.071C19.8866 16.289 19.3416 16.4509 18.784 16.554C18.2737 16.6488 17.756 16.6973 17.237 16.699C16.4962 16.7099 15.7622 16.5562 15.088 16.249C14.4599 15.9581 13.9347 15.4836 13.582 14.888C13.1943 14.1931 13.0048 13.4052 13.034 12.61C13.028 11.871 13.2171 11.1436 13.582 10.501C13.958 9.84639 14.5108 9.31094 15.177 8.956C16.0189 8.51603 16.9663 8.31803 17.914 8.384C18 8.389 18.102 8.397 18.22 8.408V5.236C18.22 5.161 18.252 5.123 18.317 5.123H20.345C20.3675 5.11986 20.3904 5.12578 20.4086 5.13946C20.4268 5.15314 20.4388 5.17347 20.442 5.196C20.443 5.20397 20.443 5.21203 20.442 5.22V14.737C20.442 14.92 20.45 15.118 20.466 15.333C20.482 15.547 20.496 15.74 20.506 15.912C20.5081 15.9451 20.5 15.9781 20.4829 16.0065C20.4657 16.0349 20.4403 16.0574 20.41 16.071ZM17.953 10.259C18.043 10.268 18.132 10.284 18.219 10.307V14.702C18.1037 14.7363 17.985 14.7578 17.865 14.766C17.7256 14.7772 17.5858 14.7826 17.446 14.782C17.1642 14.7833 16.8841 14.7398 16.616 14.653C16.3626 14.5732 16.1311 14.4356 15.94 14.251C15.7406 14.0501 15.5868 13.8086 15.489 13.543C15.3692 13.2128 15.3119 12.8632 15.32 12.512C15.2989 12.0644 15.414 11.6209 15.65 11.24C15.863 10.924 16.154 10.669 16.495 10.499C16.845 10.326 17.231 10.237 17.622 10.241C17.733 10.243 17.843 10.248 17.953 10.259Z" fill="black"/>
</svg>
